<svg width="13" height="13" viewBox="0 0 13 13" fill="none" xmlns="http://www.w3.org/2000/svg">
<g id="Layer_5_copy" clip-path="url(#clip0_133_52)">
<path id="Vector" d="M6.5 13C5.21442 13 3.95772 12.6188 2.8888 11.9046C1.81988 11.1903 0.986755 10.1752 0.494786 8.98744C0.00281636 7.79972 -0.125905 6.49279 0.124899 5.23192C0.375703 3.97104 0.994767 2.81285 1.90381 1.90381C2.81285 0.994767 3.97104 0.375703 5.23192 0.124899C6.49279 -0.125905 7.79972 0.00281636 8.98744 0.494786C10.1752 0.986755 11.1903 1.81988 11.9046 2.8888C12.6188 3.95772 13 5.21442 13 6.5C12.9981 8.22332 12.3127 9.87551 11.0941 11.0941C9.87551 12.3127 8.22332 12.9981 6.5 13ZM6.88711 9.08556C6.86296 9.08581 6.83978 9.09508 6.82211 9.11156C6.81296 9.12034 6.80569 9.13088 6.80072 9.14255C6.79576 9.15421 6.79321 9.16677 6.79322 9.17945V12.2778C6.79322 12.2901 6.79565 12.3023 6.80037 12.3137C6.80509 12.3251 6.81201 12.3355 6.82072 12.3442C6.82944 12.3529 6.83979 12.3598 6.85118 12.3645C6.86257 12.3692 6.87478 12.3717 6.88711 12.3717H6.90878C7.89678 12.1406 8.81111 11.0818 9.33545 9.53334C9.34079 9.52154 9.34356 9.50873 9.34356 9.49578C9.34356 9.48283 9.34079 9.47002 9.33545 9.45823C9.32959 9.44663 9.32125 9.43648 9.31101 9.42849C9.30077 9.4205 9.28889 9.41487 9.27623 9.412C8.49524 9.2158 7.69499 9.10633 6.89 9.08556H6.88711ZM6.11 9.08556C5.30743 9.10794 4.50971 9.21789 3.731 9.41345C3.71833 9.41631 3.70646 9.42194 3.69622 9.42993C3.68598 9.43792 3.67764 9.44808 3.67178 9.45967C3.66561 9.47107 3.66179 9.48359 3.66055 9.49649C3.65931 9.50939 3.66067 9.52242 3.66456 9.53478C4.19611 11.0818 5.109 12.1348 6.09122 12.3644H6.11289C6.13733 12.3656 6.16127 12.3573 6.17961 12.3411C6.19796 12.3249 6.20926 12.3022 6.21111 12.2778V9.17945C6.2111 9.16698 6.20854 9.15465 6.20357 9.14323C6.1986 9.1318 6.19133 9.12151 6.18222 9.113C6.16504 9.09562 6.14167 9.08575 6.11722 9.08556H6.11ZM2.99867 9.64167C2.98818 9.63961 2.97738 9.63961 2.96689 9.64167C2.61695 9.76578 2.2786 9.92045 1.95578 10.1039C1.94338 10.1106 1.93264 10.12 1.92437 10.1314C1.91611 10.1428 1.91051 10.156 1.90802 10.1699C1.90552 10.1837 1.90618 10.198 1.90995 10.2116C1.91371 10.2252 1.92049 10.2377 1.92978 10.2483C2.50313 10.9436 3.22597 11.5005 4.04445 11.8777C4.05715 11.8834 4.07094 11.8864 4.08489 11.8863C4.10259 11.8862 4.11989 11.8811 4.1348 11.8716C4.14971 11.8621 4.16163 11.8485 4.16918 11.8325C4.17673 11.8165 4.1796 11.7987 4.17746 11.7811C4.17533 11.7636 4.16828 11.747 4.15711 11.7332C3.6824 11.1285 3.3199 10.4436 3.08678 9.711C3.08255 9.69928 3.07603 9.68852 3.0676 9.67934C3.05917 9.67017 3.04899 9.66276 3.03767 9.65756C3.02634 9.64885 3.01286 9.64336 2.99867 9.64167ZM10.0013 9.64167C9.98729 9.64211 9.97349 9.64555 9.96089 9.65178C9.93793 9.66289 9.92028 9.68262 9.91178 9.70667C9.67835 10.4391 9.31587 11.124 8.84145 11.7289C8.83029 11.7426 8.82323 11.7592 8.8211 11.7768C8.81896 11.7944 8.82183 11.8122 8.82938 11.8282C8.83693 11.8442 8.84885 11.8577 8.86376 11.8672C8.87867 11.8768 8.89598 11.8819 8.91367 11.882C8.92762 11.8821 8.94141 11.8791 8.95411 11.8733C9.77092 11.4994 10.4932 10.9465 11.0673 10.2556C11.0766 10.245 11.0834 10.2324 11.0872 10.2188C11.0909 10.2052 11.0916 10.191 11.0891 10.1771C11.0866 10.1632 11.081 10.1501 11.0727 10.1386C11.0645 10.1272 11.0537 10.1178 11.0413 10.1111C10.7186 9.9271 10.3803 9.77194 10.0302 9.64745C10.021 9.64377 10.0112 9.64134 10.0013 9.64022V9.64167ZM10.4939 6.78889C10.4695 6.78888 10.446 6.79837 10.4285 6.81536C10.411 6.83235 10.4008 6.85549 10.4 6.87989C10.3788 7.58421 10.2859 8.28452 10.1227 8.97C10.1171 8.99258 10.1203 9.01641 10.1315 9.03675C10.1428 9.0571 10.1613 9.07246 10.1833 9.07978C10.6059 9.22681 11.0132 9.41451 11.3996 9.64022C11.414 9.64867 11.4305 9.65316 11.4472 9.65322C11.4632 9.65327 11.4789 9.64916 11.4929 9.64131C11.5068 9.63347 11.5184 9.62214 11.5267 9.60845C12.0329 8.78812 12.3305 7.85625 12.3933 6.89434C12.3945 6.88147 12.3929 6.86851 12.3887 6.8563C12.3844 6.8441 12.3777 6.83294 12.3688 6.82356C12.3601 6.81421 12.3496 6.80671 12.3379 6.8015C12.3263 6.79629 12.3137 6.79347 12.3009 6.79322L10.4939 6.78889ZM0.694781 6.78889C0.68201 6.78914 0.669419 6.79196 0.657757 6.79717C0.646095 6.80238 0.635598 6.80988 0.626892 6.81922C0.61801 6.8286 0.611226 6.83977 0.606993 6.85197C0.602759 6.86417 0.601171 6.87714 0.602336 6.89C0.665188 7.85192 0.962751 8.78378 1.469 9.60411C1.4821 9.62469 1.50269 9.63936 1.52641 9.64502C1.55014 9.65069 1.57514 9.64689 1.59611 9.63445C1.98265 9.40953 2.38994 9.22234 2.81234 9.07545C2.8344 9.06813 2.85289 9.05276 2.86413 9.03242C2.87538 9.01208 2.87854 8.98824 2.873 8.96567C2.71186 8.28287 2.62039 7.58549 2.6 6.88422C2.59925 6.85983 2.58903 6.83668 2.5715 6.81969C2.55398 6.80271 2.53052 6.79321 2.50611 6.79322L0.694781 6.78889ZM3.28323 6.78889C3.25767 6.78918 3.23326 6.79956 3.21534 6.81778C3.2066 6.82702 3.19979 6.83791 3.19533 6.84982C3.19086 6.86173 3.18883 6.87441 3.18934 6.88711C3.21173 7.52541 3.29836 8.15984 3.44789 8.78078C3.45054 8.79277 3.45563 8.80408 3.46283 8.81402C3.47004 8.82396 3.47921 8.83231 3.48978 8.83856C3.5047 8.84719 3.52166 8.85168 3.53889 8.85156C3.54653 8.85297 3.55436 8.85297 3.562 8.85156C4.39743 8.63868 5.25397 8.5195 6.11578 8.49622C6.14005 8.49584 6.16319 8.48594 6.18022 8.46864C6.19724 8.45135 6.20678 8.42805 6.20678 8.40378V6.88711C6.20678 6.86221 6.19689 6.83833 6.17928 6.82072C6.16167 6.80312 6.13779 6.79322 6.11289 6.79322L3.28323 6.78889ZM6.89434 6.78889C6.86943 6.78889 6.84555 6.79878 6.82795 6.81639C6.81034 6.834 6.80045 6.85788 6.80045 6.88278V8.40522C6.80044 8.42949 6.80998 8.45279 6.82701 8.47009C6.84404 8.48738 6.86718 8.49729 6.89145 8.49767C7.75327 8.52074 8.60984 8.63992 9.44522 8.853H9.46834C9.48557 8.85312 9.50253 8.84863 9.51745 8.84C9.53842 8.82663 9.55382 8.8061 9.56078 8.78222C9.70912 8.1611 9.79525 7.52675 9.81789 6.88856C9.8184 6.87585 9.81636 6.86317 9.8119 6.85126C9.80743 6.83936 9.80063 6.82846 9.79189 6.81922C9.77396 6.80101 9.74956 6.79062 9.724 6.79034L6.89434 6.78889ZM11.4472 3.34678C11.4302 3.34665 11.4136 3.35169 11.3996 3.36123C11.013 3.58614 10.6057 3.77334 10.1833 3.92022C10.1613 3.92755 10.1428 3.94291 10.1315 3.96325C10.1203 3.9836 10.1171 4.00743 10.1227 4.03C10.2856 4.71407 10.3785 5.41292 10.4 6.11578C10.4008 6.14018 10.411 6.16332 10.4285 6.18031C10.446 6.1973 10.4695 6.20679 10.4939 6.20678H12.3052C12.318 6.20653 12.3306 6.20372 12.3422 6.19851C12.3539 6.19329 12.3644 6.18579 12.3731 6.17645C12.382 6.16707 12.3888 6.15591 12.393 6.1437C12.3972 6.1315 12.3988 6.11853 12.3977 6.10567C12.3348 5.14375 12.0373 4.21189 11.531 3.39156C11.5224 3.37721 11.5101 3.36547 11.4953 3.35759C11.4806 3.3497 11.4639 3.34597 11.4472 3.34678ZM9.46111 4.14411H9.438C8.60261 4.35719 7.74605 4.47638 6.88422 4.49945C6.87208 4.49964 6.8601 4.50221 6.84896 4.50703C6.83781 4.51185 6.82773 4.51882 6.81928 4.52754C6.81083 4.53626 6.80418 4.54656 6.79971 4.55785C6.79524 4.56914 6.79303 4.5812 6.79322 4.59334V6.11C6.79322 6.1349 6.80312 6.15878 6.82072 6.17639C6.83833 6.194 6.86221 6.20389 6.88711 6.20389H9.71678C9.72949 6.20408 9.74209 6.20161 9.75378 6.19664C9.76548 6.19166 9.776 6.18429 9.78467 6.175C9.79341 6.16576 9.80021 6.15487 9.80468 6.14296C9.80914 6.13106 9.81118 6.11838 9.81067 6.10567C9.78794 5.46796 9.70181 4.8341 9.55356 4.21345C9.54704 4.18898 9.53158 4.16784 9.51022 4.15422C9.49503 4.1466 9.47809 4.14311 9.46111 4.14411ZM3.53889 4.14411C3.52166 4.144 3.5047 4.14848 3.48978 4.15711C3.47921 4.16336 3.47004 4.17171 3.46283 4.18165C3.45563 4.19159 3.45054 4.2029 3.44789 4.21489C3.29849 4.83586 3.21187 5.47027 3.18934 6.10856C3.18883 6.12126 3.19086 6.13394 3.19533 6.14585C3.19979 6.15776 3.2066 6.16865 3.21534 6.17789C3.22401 6.18718 3.23453 6.19455 3.24622 6.19952C3.25791 6.2045 3.27052 6.20697 3.28323 6.20678H6.11289C6.13779 6.20678 6.16167 6.19689 6.17928 6.17928C6.19689 6.16167 6.20678 6.13779 6.20678 6.11289V4.59622C6.20697 4.58408 6.20477 4.57203 6.2003 4.56074C6.19583 4.54945 6.18918 4.53915 6.18073 4.53043C6.17228 4.52171 6.16219 4.51474 6.15105 4.50992C6.1399 4.5051 6.12792 4.50252 6.11578 4.50234C5.25397 4.47906 4.39743 4.35988 3.562 4.147C3.55454 4.14462 3.54671 4.14365 3.53889 4.14411ZM1.55278 3.34823C1.53696 3.34817 1.52138 3.35211 1.50749 3.35969C1.4936 3.36726 1.48185 3.37823 1.47334 3.39156C0.967084 4.21189 0.669521 5.14375 0.606669 6.10567C0.605505 6.11853 0.607092 6.1315 0.611326 6.1437C0.61556 6.15591 0.622343 6.16707 0.631225 6.17645C0.639932 6.18579 0.650428 6.19329 0.66209 6.19851C0.673752 6.20372 0.686343 6.20653 0.699114 6.20678H2.50611C2.53052 6.20679 2.55398 6.1973 2.5715 6.18031C2.58903 6.16332 2.59925 6.14018 2.6 6.11578C2.62152 5.41292 2.71444 4.71407 2.87734 4.03C2.88288 4.00743 2.87971 3.9836 2.86847 3.96325C2.85723 3.94291 2.83873 3.92755 2.81667 3.92022C2.39416 3.77361 1.98685 3.5864 1.60045 3.36123C1.58598 3.35278 1.56954 3.34829 1.55278 3.34823ZM6.88711 0.63267C6.87478 0.632087 6.86245 0.633943 6.85084 0.638131C6.83923 0.642318 6.82855 0.648756 6.81943 0.657074C6.8103 0.665393 6.80291 0.675429 6.79767 0.686608C6.79243 0.697788 6.78945 0.709891 6.78889 0.722225V3.82056C6.78887 3.83324 6.79142 3.84579 6.79639 3.85746C6.80135 3.86913 6.80863 3.87967 6.81778 3.88845C6.83544 3.90492 6.85863 3.9142 6.88278 3.91445C7.68548 3.89358 8.48337 3.78361 9.26178 3.58656C9.27445 3.58369 9.28633 3.57807 9.29657 3.57008C9.3068 3.56208 9.31515 3.55193 9.321 3.54034C9.32635 3.52854 9.32911 3.51573 9.32911 3.50278C9.32911 3.48983 9.32635 3.47702 9.321 3.46522C8.81111 1.91823 7.89678 0.86667 6.90878 0.635558L6.88711 0.63267ZM6.11289 0.63267H6.09122C5.10322 0.86667 4.19611 1.91823 3.66456 3.46667C3.66067 3.47903 3.65931 3.49206 3.66055 3.50496C3.66179 3.51786 3.66561 3.53038 3.67178 3.54178C3.67764 3.55337 3.68598 3.56353 3.69622 3.57152C3.70646 3.57951 3.71833 3.58514 3.731 3.588C4.50964 3.78368 5.30744 3.89315 6.11 3.91445C6.13415 3.9142 6.15734 3.90492 6.175 3.88845C6.18415 3.87967 6.19143 3.86913 6.19639 3.85746C6.20136 3.84579 6.20391 3.83324 6.20389 3.82056V0.722225C6.20389 0.697324 6.194 0.673443 6.17639 0.655836C6.15878 0.638228 6.1349 0.628336 6.11 0.628336L6.11289 0.63267ZM8.91367 1.11367C8.89598 1.11379 8.87867 1.1189 8.86376 1.12843C8.84885 1.13795 8.83693 1.1515 8.82938 1.1675C8.82183 1.1835 8.81896 1.20132 8.8211 1.21888C8.82323 1.23645 8.83029 1.25305 8.84145 1.26678C9.31587 1.87169 9.67835 2.55654 9.91178 3.289C9.91577 3.30103 9.92218 3.31211 9.93063 3.32155C9.93908 3.33099 9.94938 3.3386 9.96089 3.34389C9.97349 3.35012 9.98729 3.35357 10.0013 3.354C10.0119 3.3555 10.0226 3.3555 10.0331 3.354C10.3829 3.22889 10.7212 3.07376 11.0442 2.89034C11.0566 2.88363 11.0674 2.87422 11.0756 2.8628C11.0839 2.85138 11.0895 2.83825 11.092 2.82437C11.0945 2.8105 11.0938 2.79624 11.0901 2.78265C11.0863 2.76906 11.0795 2.7565 11.0702 2.74589C10.4962 2.05272 9.77346 1.49779 8.95556 1.12234C8.94242 1.11636 8.9281 1.1134 8.91367 1.11367ZM4.08634 1.11367C4.07239 1.11361 4.05859 1.11657 4.04589 1.12234C3.22866 1.49756 2.50639 2.05198 1.93267 2.74445C1.92338 2.75506 1.9166 2.76762 1.91284 2.7812C1.90907 2.79479 1.90841 2.80905 1.91091 2.82293C1.9134 2.8368 1.91899 2.84994 1.92726 2.86136C1.93553 2.87278 1.94627 2.88219 1.95867 2.88889C2.28149 3.07233 2.61984 3.227 2.96978 3.35111C2.98027 3.35318 2.99107 3.35318 3.00156 3.35111C3.01551 3.35117 3.0293 3.34822 3.042 3.34245C3.06469 3.33098 3.08223 3.31138 3.09111 3.28756C3.32423 2.55496 3.68674 1.87006 4.16145 1.26534C4.17261 1.25161 4.17966 1.235 4.1818 1.21744C4.18393 1.19987 4.18106 1.18206 4.17351 1.16606C4.16596 1.15005 4.15404 1.13651 4.13913 1.12698C4.12422 1.11746 4.10692 1.11234 4.08922 1.11223L4.08634 1.11367Z" fill="#050505"/>
</g>
<defs>
<clipPath id="clip0_133_52">
<rect width="13" height="13" fill="white"/>
</clipPath>
</defs>
</svg>
