<svg width="121" height="28" viewBox="0 0 121 28" fill="none" xmlns="http://www.w3.org/2000/svg">
<g id="Group 1">
<g id="Group 6">
<path id="Vector" d="M20.2607 13.3311C20.2129 14.7991 19.2721 15.4732 17.8438 15.5022C16.501 15.5336 15.1578 15.5471 13.815 15.509C12.9071 15.4849 12.588 15.8728 12.6125 16.7454C12.6507 18.3591 12.6614 19.9729 12.609 21.5862C12.5001 24.9039 9.73736 27.6464 6.50803 27.6913C3.05936 27.743 0.331752 25.1722 0.142219 21.6798C0.0749648 20.4748 0.00236114 19.2698 -0.00146011 18.0647C-0.00833835 16.6306 0.992063 15.523 2.27409 15.4607C3.61153 15.3951 4.55308 16.2951 4.66543 17.876C4.74949 19.0226 4.71778 20.1782 4.7109 21.3322C4.70402 22.4784 5.31045 23.0773 6.41517 23.0565C7.44691 23.0358 7.99296 22.3848 8.02009 21.3703C8.04455 20.3314 8.02353 19.2924 8.02353 18.1115C8.16033 16.9518 7.94978 15.6532 8.27956 14.327C8.76333 12.3646 9.79774 11.1516 11.8627 11.0233C13.8998 10.8988 15.9515 10.9161 17.9882 11.0026C19.3914 11.0629 20.31 11.8592 20.2607 13.3311Z" fill="#2F76FF"/>
<path id="Vector_2" d="M23.1935 2.24323C23.1759 3.58675 22.1595 4.40381 20.4132 4.40758C16.6194 4.41098 12.8291 4.37966 9.03541 4.38305C5.70137 4.38305 4.63525 5.42202 4.58633 8.67365C4.57907 9.0786 4.57907 9.48052 4.55806 9.88132C4.47399 11.232 3.77623 12.0766 2.37995 12.0804C0.977552 12.0804 0.304249 11.2354 0.216743 9.87792C0.00542782 6.4991 0.538491 3.39994 3.71509 1.42239C5.01431 0.615524 6.45339 0.0637726 8.04189 0.0637726H13.9919V0.00980522C16.1517 0.00980522 18.3099 -0.018122 20.4678 0.0199949C22.2665 0.0479221 23.2061 0.854792 23.1935 2.24323Z" fill="#2F76FF"/>
<path id="Vector_3" d="M90.4267 12.1608C88.677 9.96511 85.9284 9.46657 83.2321 10.9452C82.6536 11.2637 82.4747 11.1667 81.991 10.772C80.788 9.79076 79.477 10.3738 79.4559 11.894C79.3998 16.0423 79.4418 20.1872 79.4349 24.3359C79.4315 25.3926 79.9783 26.0153 80.9986 26.0048C81.9417 25.9946 82.4606 25.3402 82.4923 24.4084C82.5236 23.3766 82.4992 22.3448 82.4992 21.1156C85.5355 22.9437 88.2845 22.7007 90.178 20.6273C92.2254 18.3833 92.3377 14.5603 90.4267 12.1608ZM85.6934 19.5675C83.926 19.6091 82.5661 18.2553 82.5026 16.3853C82.4361 14.4565 83.8018 12.9156 85.5883 12.9133C87.3239 12.9061 88.6629 14.3259 88.6911 16.2027C88.7156 18.1029 87.45 19.526 85.6934 19.5675Z" fill="#2F76FF"/>
<path id="Vector_4" d="M111.394 16.2744C111.394 14.8928 111.383 13.5111 111.401 12.1261C111.408 11.4468 111.267 10.8448 110.616 10.5229C109.921 10.1799 109.195 10.2319 108.708 10.838C108.319 11.326 108.14 11.2569 107.625 10.966C104.946 9.46658 102.155 9.95153 100.409 12.1227C98.54 14.4425 98.5889 18.1757 100.517 20.4714C102.271 22.5595 104.985 22.9852 107.593 21.4998C108.08 21.2228 108.277 21.0669 108.676 21.6108C109.129 22.227 109.837 22.3342 110.563 21.9983C111.327 21.6451 111.401 20.9733 111.397 20.2499C111.388 18.9271 111.394 17.6006 111.394 16.2744ZM105.205 19.5675C103.382 19.5536 102.057 18.0682 102.123 16.1083C102.183 14.2384 103.557 12.8567 105.307 12.9084C107.057 12.9601 108.322 14.3942 108.294 16.2952C108.266 18.2033 106.969 19.5781 105.205 19.5675Z" fill="#2F76FF"/>
<path id="Vector_5" d="M51.6866 17.0431C52.6193 17.019 53.5521 17.0363 54.4849 17.0329C55.3015 17.0329 56.1185 17.0499 56.9305 17.0292C58.9175 16.9843 59.5289 16.2295 59.1709 14.2904C58.5977 11.2048 55.016 9.31786 51.6186 10.3149C49.2975 10.9943 47.6636 12.9567 47.4217 15.5128C47.1764 18.0821 48.0916 20.2083 50.3881 21.5066C52.6706 22.8052 55.0795 22.7569 57.3864 21.4756C58.049 21.105 58.5996 20.4816 58.1716 19.6056C57.7375 18.7188 57.0115 18.832 56.2381 19.138C55.6454 19.3701 55.0386 19.6264 54.418 19.72C53.0473 19.9174 51.8868 19.4879 51.0664 18.3383C50.8314 18.0127 50.5368 17.6526 50.7435 17.2439C50.933 16.8737 51.3641 17.0499 51.6866 17.0431ZM53.3679 12.6318C54.6232 12.594 55.496 13.2201 56.0012 14.5501H50.7962C51.238 13.2582 52.1463 12.6695 53.3698 12.6318H53.3679Z" fill="#2F76FF"/>
<path id="Vector_6" d="M32.2414 11.6657C32.1295 13.002 32.7764 13.1858 33.8895 13.0998C34.8746 13.0243 35.8705 13.0722 36.8628 13.093C37.8181 13.1103 38.4368 13.5673 38.4475 14.5508C38.4578 15.5551 37.7673 15.9291 36.8556 16.0155C36.6836 16.0329 36.5086 16.0121 36.3332 16.0257C35.008 16.1227 33.1952 15.4407 32.494 16.3133C31.8314 17.1375 32.2835 18.8516 32.28 20.171C32.28 21.2824 32.1994 22.3837 30.7198 22.3489C29.2998 22.3142 29.142 21.2409 29.1489 20.1257C29.1561 18.5123 29.1489 16.8986 29.1489 15.2849C29.1489 13.73 29.1141 12.1751 29.1561 10.6206C29.2192 8.23098 30.6113 6.65196 32.9709 6.47912C34.7696 6.34741 36.5858 6.40968 38.3913 6.44779C39.2958 6.46516 39.9833 6.85651 39.958 7.90227C39.9336 8.90652 39.3233 9.34279 38.3764 9.36015C36.9213 9.3843 35.4593 9.41563 34.0045 9.35637C32.2238 9.28656 32.3396 10.464 32.2414 11.6657Z" fill="#2F76FF"/>
<path id="Vector_7" d="M71.3251 21.7734C70.515 22.5074 69.7018 22.2512 69.0251 21.5273C68.2746 20.7242 67.5279 19.9102 66.8443 19.0482C66.2937 18.3519 65.9219 18.3972 65.3961 19.086C64.7335 19.9619 63.9902 20.7842 63.2329 21.5824C62.605 22.2474 61.8232 22.4882 61.0765 21.804C60.3887 21.1703 60.631 20.4778 61.1396 19.8038C62.072 18.564 63.9619 17.5496 63.8603 16.1887C63.7655 14.9731 62.1071 13.8757 61.1472 12.7189C60.597 12.0611 60.4357 11.3305 61.1369 10.721C61.8553 10.0976 62.662 10.2013 63.3211 10.8769C64.009 11.583 64.735 12.2759 65.2776 13.0858C66.098 14.3221 66.6873 14.0244 67.4198 13.0235C67.9983 12.234 68.6785 11.5105 69.3587 10.8007C69.8459 10.2949 70.4772 10.184 71.126 10.5097C71.5819 10.7384 71.7814 11.1399 71.7852 11.7147C71.5888 12.7465 70.6877 13.3839 70.032 14.17C68.2822 16.2683 68.2651 16.251 70.074 18.3391C70.4527 18.7788 70.8211 19.229 71.2101 19.6547C71.8299 20.3363 72.1001 21.0703 71.3251 21.7734Z" fill="#2F76FF"/>
<path id="Vector_8" d="M119.581 22.1025C116.741 23.2902 114.013 21.6451 113.844 18.5946C113.757 16.9877 113.83 15.3743 113.83 13.7606H113.834C113.834 12.2646 113.852 10.7686 113.83 9.27599C113.817 8.25099 114.021 7.40298 115.275 7.34751C116.495 7.29203 117.003 8.07814 116.898 9.10994C116.758 10.4569 117.516 10.4708 118.465 10.4052C119.507 10.3323 120.436 10.561 120.397 11.8042C120.362 12.9503 119.415 13.1684 118.493 13.0367C117.077 12.836 116.821 13.4836 116.93 14.6886C117.028 15.7725 117 16.8775 116.937 17.9644C116.853 19.457 117.592 19.817 118.883 19.4324C119.723 19.1834 120.569 18.9928 120.908 20.0317C121.274 21.1432 120.489 21.7213 119.581 22.1025Z" fill="#2F76FF"/>
<path id="Vector_9" d="M96.9588 17.5904C96.9588 18.4803 96.9623 19.3702 96.9695 20.2601C96.9763 21.3198 96.6152 22.1406 95.4371 22.147C94.2801 22.1538 93.8593 21.3783 93.8628 20.2978C93.8697 16.3261 93.8672 12.352 93.8555 8.37553C93.8521 7.30901 94.2449 6.49157 95.3951 6.47459C96.5518 6.46063 96.9729 7.26712 96.9695 8.34081C96.9622 9.21334 96.9622 10.0863 96.9622 10.9588C96.9622 12.1015 96.9656 13.2443 96.9622 14.3867C96.9622 15.4539 96.9588 16.5239 96.9588 17.5904Z" fill="#2F76FF"/>
<path id="Vector_10" d="M45.2004 20.3261C45.218 21.4205 44.7973 22.1821 43.6436 22.1614C42.5916 22.144 42.1675 21.4134 42.1709 20.3952C42.1849 16.3681 42.1873 12.3409 42.1782 8.31363C42.1709 7.22975 42.5637 6.44024 43.7384 6.48176C44.9023 6.52327 45.2249 7.34977 45.2073 8.41741C45.1691 10.4293 45.1935 12.4446 45.1935 14.4557C45.1897 16.4129 45.1687 18.3693 45.2004 20.3261Z" fill="#2F76FF"/>
<path id="Vector_11" d="M76.9454 18.7678C76.9454 19.3219 76.9454 19.8725 76.9522 20.4227C76.9629 21.4443 76.4895 22.1508 75.4589 22.1682C74.3263 22.1855 73.8601 21.4511 73.8704 20.3537C73.8914 17.5987 73.888 14.841 73.8773 12.0846C73.8738 11.0735 74.2877 10.3485 75.35 10.3463C76.4757 10.3391 76.9805 11.0422 76.9549 12.1536C76.9373 13.0971 76.9442 14.0376 76.9477 14.9841V16.2884C76.9488 17.116 76.9454 17.9436 76.9454 18.7678Z" fill="#2F76FF"/>
<path id="Vector_12" d="M77.1384 7.0286C77.1804 8.09172 76.6087 8.74273 75.4975 8.85028C74.3683 8.83632 73.6882 8.22343 73.6217 7.19503C73.5514 6.13531 74.2457 5.44279 75.308 5.38052C76.3879 5.32127 77.0925 5.93453 77.1384 7.0286Z" fill="#2F76FF"/>
</g>
</g>
</svg>
